<?xml version="1.0" encoding="UTF-8" standalone="no"?>
<svg xmlns:svg="http://www.w3.org/2000/svg" xmlns="http://www.w3.org/2000/svg" xmlns:inkscape="http://www.inkscape.org/namespaces/inkscape" width="86px" height="65px" viewBox="0 0 313 237" version="1.1" preserveAspectRatio="xMidYMid meet">
    <g transform="matrix(1,0,0,1,0,0)" fill="#fff">
        <path xmlns="http://www.w3.org/2000/svg" fill-rule="nonzero" d="M0,0 H313 V237 H0,0 z M4,4 v229 h305 v-229 z"></path>
    </g>
    <g transform="matrix(0.25002768635749817,0,0,0.25002768635749817,90.98527983773522,14)" fill="#fff">
        <g>
            <path d="M61 152c11,-7 15,-8 26,-18l2 -3c12,-9 25,-20 38,-26 21,-10 20,-12 35,-28 6,-7 20,-16 27,-22l3 -3 32 37 22 -14c9,-9 18,-19 26,-29 13,-16 12,-23 30,-39 3,-2 6,-4 9,-7 21,17 22,13 36,37 5,10 15,20 23,28l1 1c14,-5 28,-11 42,-17 17,14 21,17 34,35 10,13 26,29 38,41 13,13 26,27 39,40 -39,-20 -77,-40 -115,-61 41,42 82,85 123,127l-190 -126c-6,-14 -13,-28 -19,-42 -2,-5 -4,-12 -6,-18 -5,9 -8,14 -12,24 -2,4 -5,9 -7,14 -4,9 -9,19 -13,29l-1 2 98 65 -70 -6 67 68c1,1 0,2 -1,1 -35,-28 -70,-56 -104,-85 -14,-12 -16,-22 -34,-32 -11,-7 -14,-8 -24,-16 -5,-4 -10,-8 -15,-12 -6,8 -17,27 -24,33 -12,11 -20,14 -26,31 -2,5 -2,3 1,9 4,11 10,20 14,32 3,8 6,16 9,24l-51 -37c-5,0 -10,0 -14,0 2,20 4,40 6,60 -15,-9 -18,-9 -29,-23 -10,-11 -17,-17 -33,-19 -6,-1 -37,7 -44,9 -12,4 -12,8 -6,-3 13,-21 26,-22 35,-33 2,-4 5,-9 7,-13 4,-7 9,-11 15,-15z" fill="#fff"></path>
        </g>
    </g>
    <g transform="matrix(2.089724063873291,0,0,2.089724063873291,17.812878611363356,72.0935577903548)" fill="#fff">
        <path d="M-0.38879 40 c0 0 1.9932 -1.5804 3.0424 -4.7728 l6.0636 -18.454 c0.9864 -3.0024 0.41404 -4.7736 0.41404 -4.7736 l12.709 0 s-0.5724 1.7712 0.41404 4.7736 l0 0 l6.0636 18.454 c1.0492 3.1924 3.0424 4.7724 3.0424 4.7724 l-11.749 0 s1.4008 -1.644 0.51436 -4.72 l-9.28 0 c-0.8864 3.076 0.51436 4.72 0.51436 4.72 l-11.749 0 z M12.486 29.48 l6 0 l-3 -10.48 z M39.96 40.64 c-3.44 0 -8.2 -1.48 -8.2 -1.48 l2.8 -7.96 s1.88 3.8 5.2 3.8 c2.68 0 4.36 -1.16 4.36 -2.92 c0 -3.2 -11.76 -3.3984 -11.76 -11.52 c0 -5.96 4.92 -9.12 11.64 -9.12 c3.32 0 7.36 1.8 7.36 1.8 l-2.76 7.52 s-2.24 -3.96 -4.8 -3.96 c-2.16 0 -3.36 1.36 -3.36 2.68 c0 3.12 12.08 3.64 12.08 11.6 c0 5.92 -5.52 9.56 -12.56 9.56 z M53.84 40 c0 0 1.88 -2.36 1.88 -4.76 l0 -18.44 c0 -2.4 -1.88 -4.8 -1.88 -4.8 l11.76 0 s-1.88 2.4 -1.88 4.8 l0 6.4 l8.4 0 l0 -6.4 c0 -2.4 -1.88 -4.8 -1.88 -4.8 l11.76 0 s-1.88 2.4 -1.88 4.8 l0 18.44 c0 2.4 1.88 4.76 1.88 4.76 l-11.76 0 s1.88 -2.36 1.88 -4.76 l0 -5.64 l-8.4 0 l0 5.64 c0 2.4 1.88 4.76 1.88 4.76 l-11.76 0 z M96.96 40.56 c-7.32 0 -13.64 -3.6 -13.64 -14.56 c0 -9.4 5.52 -14.56 12.84 -14.56 s13.64 3.6 13.64 14.56 c0 9.44 -5.52 14.56 -12.84 14.56 z M96.72 34.76 c2.68 0 4.68 -3.12 4.68 -8.76 c0 -6.6 -2.32 -8.72 -5 -8.72 s-4.68 3.08 -4.68 8.72 c0 6.6 2.32 8.76 5 8.76 z M116.52 40 c0 0 1.88 -2.4 1.88 -4.76 l0 -16.84 l-2.44 0 c-2.36 0 -4.76 1.88 -4.76 1.88 l0 -8.28 l22.4 0 l0 8.28 s-2.4 -1.88 -4.76 -1.88 l-2.44 0 l0 16.84 c0 2.36 1.88 4.76 1.88 4.76 l-11.76 0 z"></path>
    </g>
    <g transform="matrix(1.9141372442245483,0,0,1.9141372442245483,16.00464864728977,145.10227024037496)" fill="#fff">
        <path d="M0.52 40 c0 0 1.88 -2.36 1.88 -4.76 l0 -18.44 c0 -2.4 -1.88 -4.8 -1.88 -4.8 l21.48 0 l0 8.28 s-2.4 -1.88 -4.8 -1.88 l-6.8 0 l0 5.2 l2.8 0 c2.4 0 4.8 -1.88 4.8 -1.88 l0 9.36 s-2.4 -1.88 -4.8 -1.88 l-2.8 0 l0 4.4 l6.8 0 c2.4 0 4.8 -1.88 4.8 -1.88 l0 8.28 l-21.48 0 z M24 32.6744 l0 -10.949 s2.3868 1.8744 4.7732 1.8744 l7.2532 0 c2.3868 0 4.7736 -1.8744 4.7736 -1.8744 l0 10.949 s-2.3868 -1.8744 -4.7736 -1.8744 l-7.2532 0 c-2.3864 0 -4.7732 1.8744 -4.7732 1.8744 z M51 40.64 c-3.44 0 -8.2 -1.48 -8.2 -1.48 l2.8 -7.96 s1.88 3.8 5.2 3.8 c2.68 0 4.36 -1.16 4.36 -2.92 c0 -3.2 -11.76 -3.3984 -11.76 -11.52 c0 -5.96 4.92 -9.12 11.64 -9.12 c3.32 0 7.36 1.8 7.36 1.8 l-2.76 7.52 s-2.24 -3.96 -4.8 -3.96 c-2.16 0 -3.36 1.36 -3.36 2.68 c0 3.12 12.08 3.64 12.08 11.6 c0 5.92 -5.52 9.56 -12.56 9.56 z M64.88 40 c0 0 1.88 -2.36 1.88 -4.76 l0 -18.44 c0 -2.4 -1.88 -4.8 -1.88 -4.8 l11.76 0 s-1.88 2.4 -1.88 4.8 l0 6.4 l8.4 0 l0 -6.4 c0 -2.4 -1.88 -4.8 -1.88 -4.8 l11.76 0 s-1.88 2.4 -1.88 4.8 l0 18.44 c0 2.4 1.88 4.76 1.88 4.76 l-11.76 0 s1.88 -2.36 1.88 -4.76 l0 -5.64 l-8.4 0 l0 5.64 c0 2.4 1.88 4.76 1.88 4.76 l-11.76 0 z M108 40.56 c-7.32 0 -13.64 -3.6 -13.64 -14.56 c0 -9.4 5.52 -14.56 12.84 -14.56 s13.64 3.6 13.64 14.56 c0 9.44 -5.52 14.56 -12.84 14.56 z M107.76 34.76 c2.68 0 4.68 -3.12 4.68 -8.76 c0 -6.6 -2.32 -8.72 -5 -8.72 s-4.68 3.08 -4.68 8.72 c0 6.6 2.32 8.76 5 8.76 z M122.16 40 c0 0 1.88 -2.4 1.88 -4.76 l0 -18.48 c0 -2.36 -1.88 -4.76 -1.88 -4.76 l12.4 0 c6.6 0 12.24 2.68 12.24 8.88 c0 4.16 -2.08 6.84 -5.2 8.4 c-1.8 0.88 -3.92 1.36 -6.24 1.56 c-0.72 0.08 -2.6 0.08 -3.32 0.08 l0 4.32 c0 2.36 1.88 4.76 1.88 4.76 l-11.76 0 z M132.04 25.6 l1.44 0 c2.84 0 4.96 -1.36 4.96 -3.92 c0 -3 -2.44 -3.96 -5.28 -3.96 l-1.12 0 l0 7.88 z"></path>
    </g>
</svg>